<?xml version="1.0" encoding="utf-8"?>
<!-- Generator: Adobe Illustrator 21.1.0, SVG Export Plug-In . SVG Version: 6.00 Build 0)  -->
<svg version="1.1" id="Layer_1" xmlns="http://www.w3.org/2000/svg" xmlns:xlink="http://www.w3.org/1999/xlink" x="0px" y="0px"
	 viewBox="0 0 200 200" style="enable-background:new 0 0 200 200;" xml:space="preserve">
<g>
	<defs>
		<rect id="SVGID_1_" x="19" y="15" width="162.1" height="170.1"/>
	</defs>
	<clipPath id="SVGID_2_">
		<use xlink:href="#SVGID_1_"  style="overflow:visible;"/>
	</clipPath>
	<path style="clip-path:url(#SVGID_2_);fill:#FFFFFF;" d="M140.6,172.9h28.1v-27.3h-28.1V172.9z M140.6,139.5h28.1v-30.4h-28.1
		V139.5z M140.6,103.1h28.1V75.7h-28.1V103.1z M143.8,57.5V30.2c0-0.8-0.3-1.5-0.9-2.1c-0.6-0.6-1.3-0.9-2.2-0.9h-6.2
		c-0.8,0-1.6,0.3-2.2,0.9c-0.6,0.6-0.9,1.3-0.9,2.1v27.3c0,0.8,0.3,1.5,0.9,2.1c0.6,0.6,1.3,0.9,2.2,0.9h6.2c0.8,0,1.6-0.3,2.2-0.9
		C143.5,59.1,143.8,58.3,143.8,57.5 M103.2,172.9h31.2v-27.3h-31.2V172.9z M103.2,139.5h31.2v-30.4h-31.2V139.5z M103.2,103.1h31.2
		V75.7h-31.2V103.1z M65.8,172.9H97v-27.3H65.8V172.9z M65.8,139.5H97v-30.4H65.8V139.5z M65.8,103.1H97V75.7H65.8V103.1z
		 M68.9,57.5V30.2c0-0.8-0.3-1.5-0.9-2.1c-0.6-0.6-1.3-0.9-2.2-0.9h-6.2c-0.8,0-1.6,0.3-2.2,0.9c-0.6,0.6-0.9,1.3-0.9,2.1v27.3
		c0,0.8,0.3,1.5,0.9,2.1c0.6,0.6,1.3,0.9,2.2,0.9h6.2c0.8,0,1.6-0.3,2.2-0.9C68.6,59.1,68.9,58.3,68.9,57.5 M31.5,172.9h28.1v-27.3
		H31.5V172.9z M31.5,139.5h28.1v-30.4H31.5V139.5z M31.5,103.1h28.1V75.7H31.5V103.1z M181.2,51.4v121.5c0,3.3-1.2,6.1-3.7,8.5
		c-2.5,2.4-5.4,3.6-8.8,3.6H31.5c-3.4,0-6.3-1.2-8.8-3.6c-2.5-2.4-3.7-5.3-3.7-8.5V51.4c0-3.3,1.2-6.1,3.7-8.5
		c2.5-2.4,5.4-3.6,8.8-3.6H44v-9.1c0-4.2,1.5-7.7,4.6-10.7c3.1-3,6.7-4.5,11-4.5h6.2c4.3,0,8,1.5,11,4.5c3.1,3,4.6,6.6,4.6,10.7v9.1
		h37.4v-9.1c0-4.2,1.5-7.7,4.6-10.7c3.1-3,6.7-4.5,11-4.5h6.2c4.3,0,8,1.5,11,4.5c3.1,3,4.6,6.6,4.6,10.7v9.1h12.5
		c3.4,0,6.3,1.2,8.8,3.6C179.9,45.3,181.2,48.2,181.2,51.4"/>
</g>
</svg>
