<?xml version="1.0" encoding="utf-8"?>
<!-- Generator: Adobe Illustrator 21.1.0, SVG Export Plug-In . SVG Version: 6.00 Build 0)  -->
<svg version="1.1" id="Layer_1" xmlns="http://www.w3.org/2000/svg" xmlns:xlink="http://www.w3.org/1999/xlink" x="0px" y="0px"
	 viewBox="0 0 200 200" style="enable-background:new 0 0 200 200;" xml:space="preserve">
<g>
	<defs>
		<rect id="SVGID_1_" x="7.2" y="14.3" width="185.8" height="170.9"/>
	</defs>
	<clipPath id="SVGID_2_">
		<use xlink:href="#SVGID_1_"  style="overflow:visible;"/>
	</clipPath>
	<path style="clip-path:url(#SVGID_2_);fill:#FFFFFF;" d="M56,16c0,0,0.7-1.9,3.1-1.7c2.4,0.1,2,2.5,2.1,3.4
		c0.1,0.9,2.1,51.7,42.7,63.1c40.6,11.4,57.1,7.2,59.8,4.2c2.7-3,9.3-15,7.3-38.1c0-1.9,0.7-2.4,1.7-2c1,0.4,6.4,13.2,6,28.2
		c-0.4,15-3.3,23.9-3.3,24.8c0,0.9,0.4,1.6,1.7,4s5.6,17,3.6,33.9c2.1,2.3,11,13.2,11,13.2s1.3,1.9,1.1,5.3
		c-0.1,3.4-1.7,27.8-1.7,27.8s0.1,3-2.1,3h-14.3c0,0-2.3-1-1.4-4.6c0.9-3.6,4.6-3.3,6.6-3.7c2-0.4,0.7-2.3,0.7-2.3s-3.4-9.2-4.4-14
		c-15.9-0.4-30.8-13.9-38.2-23.9c-36.3,5.3-61.7,3.4-61.7,3.4l-9,40.4c0,0,0.1,4.3-4.3,4.7c-4.4,0.4-12.4,0-12.4,0s-2.3-0.3-2.1-3.6
		c0.1-3.3,2.1-4.2,5-4.3c2.9-0.1,2.7-1.3,2.7-2.4c0-1.1-2.1-38.8-2.1-38.8s-16-22-14.2-58.4c-20.6,0-33.1-4.7-32.6-19.9
		c7.9-2.7,21.8-7.6,21.8-7.6s1-10.3,20-14.5C52.2,21.3,56,16,56,16"/>
	<path style="clip-path:url(#SVGID_2_);fill:#FFFFFF;" d="M81.8,147.3h10.1l-10.1,35.5c0,0-0.7,2.5-3.1,2.5h-4.8L81.8,147.3z"/>
	<path style="clip-path:url(#SVGID_2_);fill:#FFFFFF;" d="M116.4,145.5c0,0,11.3-0.5,18-1.7c10.1,12.9,17,15.3,28.4,19.7
		c-1,12.5-1.6,19.1-1.6,19.1s-0.5,2.6-3.7,2.6h-12c0,0-2-1-0.6-4.8c1-2.5,5.8-2.2,6.7-3.1c0.9-0.9-1.8-8-2.1-12.3
		C126.7,160.6,116.4,145.5,116.4,145.5"/>
</g>
</svg>
