<?xml version="1.0" encoding="utf-8"?>
<!-- Generator: Adobe Illustrator 21.1.0, SVG Export Plug-In . SVG Version: 6.00 Build 0)  -->
<svg version="1.1" id="Layer_1" xmlns="http://www.w3.org/2000/svg" xmlns:xlink="http://www.w3.org/1999/xlink" x="0px" y="0px"
	 viewBox="0 0 400 400" style="enable-background:new 0 0 400 400;" xml:space="preserve">
<g>
	<path style="fill:#FFFFFF;" d="M326.8,136.3c0,17.9-2.7,32.7-8.1,44.2l-89.8,191c-2.6,5.4-6.5,9.7-11.7,12.8
		c-5.2,3.1-10.7,4.7-16.7,4.7s-11.5-1.6-16.7-4.7c-5.2-3.1-9-7.4-11.5-12.8l-90.1-191c-5.4-11.5-8.1-26.2-8.1-44.2
		c0-34.9,12.3-64.6,37-89.3s54.4-37,89.3-37c34.9,0,64.6,12.3,89.3,37C314.5,71.7,326.8,101.5,326.8,136.3z M245.2,181
		c12.3-12.3,18.5-27.2,18.5-44.7c0-17.4-6.2-32.3-18.5-44.7c-12.3-12.3-27.2-18.5-44.7-18.5c-17.4,0-32.3,6.2-44.7,18.5
		c-12.3,12.3-18.5,27.2-18.5,44.7c0,17.4,6.2,32.3,18.5,44.7c12.3,12.3,27.2,18.5,44.7,18.5C217.9,199.5,232.8,193.3,245.2,181z"/>
</g>
</svg>
