<?xml version="1.0" encoding="utf-8"?>
<!-- Generator: Adobe Illustrator 21.1.0, SVG Export Plug-In . SVG Version: 6.00 Build 0)  -->
<svg version="1.1" id="Layer_1" xmlns="http://www.w3.org/2000/svg" xmlns:xlink="http://www.w3.org/1999/xlink" x="0px" y="0px"
	 viewBox="0 0 200 200" style="enable-background:new 0 0 200 200;" xml:space="preserve">
<g>
	<defs>
		<rect id="SVGID_1_" x="3" y="32" width="193.4" height="136"/>
	</defs>
	<clipPath id="SVGID_2_">
		<use xlink:href="#SVGID_1_"  style="overflow:visible;"/>
	</clipPath>
	<path style="clip-path:url(#SVGID_2_);fill:#FFFFFF;" d="M115.7,110.6v-0.4l-2.6-34c-0.1-0.9-0.5-1.7-1.2-2.4c-0.7-0.7-1.5-1-2.4-1
		H89.8c-0.9,0-1.7,0.3-2.4,1c-0.7,0.7-1.1,1.5-1.2,2.4l-2.6,34v0.4c-0.1,0.9,0.2,1.6,0.9,2.1c0.6,0.6,1.4,0.8,2.2,0.8h25.9
		c0.9,0,1.6-0.3,2.2-0.8C115.5,112.2,115.8,111.5,115.7,110.6 M196.4,160.2c0,5.2-1.6,7.8-4.9,7.8h-74.8c0.9,0,1.7-0.3,2.3-1
		c0.6-0.7,0.9-1.5,0.9-2.4l-2.1-27.2c-0.1-0.9-0.5-1.7-1.2-2.4c-0.7-0.7-1.5-1-2.4-1H85.2c-0.9,0-1.7,0.3-2.4,1
		c-0.7,0.7-1.1,1.5-1.2,2.4l-2.1,27.2c-0.1,0.9,0.2,1.7,0.9,2.4c0.6,0.7,1.4,1,2.3,1H7.9c-3.3,0-4.9-2.6-4.9-7.8
		c0-3.8,0.9-7.9,2.8-12.3L50.1,37c0.6-1.3,1.5-2.5,2.8-3.5c1.3-1,2.6-1.5,4-1.5h36c-0.9,0-1.7,0.3-2.4,1c-0.7,0.7-1.1,1.5-1.2,2.4
		l-1.6,20.4c-0.1,1,0.2,1.8,0.9,2.4c0.6,0.6,1.4,1,2.3,1h17.6c0.9,0,1.7-0.3,2.3-1c0.6-0.6,0.9-1.5,0.9-2.4l-1.6-20.4
		c-0.1-0.9-0.5-1.7-1.2-2.4c-0.7-0.7-1.5-1-2.4-1h36c1.4,0,2.8,0.5,4,1.5s2.2,2.2,2.8,3.5l44.3,110.9
		C195.5,152.3,196.4,156.4,196.4,160.2"/>
</g>
</svg>
