<?xml version="1.0" encoding="utf-8"?>
<!-- Generator: Adobe Illustrator 21.1.0, SVG Export Plug-In . SVG Version: 6.00 Build 0)  -->
<svg version="1.1" id="Layer_1" xmlns="http://www.w3.org/2000/svg" xmlns:xlink="http://www.w3.org/1999/xlink" x="0px" y="0px"
	 viewBox="0 0 200 200" style="enable-background:new 0 0 200 200;" xml:space="preserve">
<g>
	<defs>
		<rect id="SVGID_1_" x="12.2" y="23" width="175.5" height="153.6"/>
	</defs>
	<clipPath id="SVGID_2_">
		<use xlink:href="#SVGID_1_"  style="overflow:visible;"/>
	</clipPath>
	<path style="clip-path:url(#SVGID_2_);fill:#FFFFFF;" d="M152.1,152.3l2.7-35.6c0.1-1.5-0.3-2.8-1.3-4c-1-1.2-2.2-1.8-3.7-1.9
		c-1.5-0.1-2.8,0.3-4,1.3c-1.2,1-1.8,2.2-1.9,3.7l-2.7,35.6c-0.1,1.5,0.3,2.8,1.3,4c1,1.2,2.2,1.8,3.7,1.9h0.4
		c1.4,0,2.7-0.5,3.7-1.5C151.4,154.9,152,153.7,152.1,152.3 M121.9,151.9v-35.6c0-1.5-0.5-2.8-1.6-3.9c-1.1-1.1-2.4-1.6-3.9-1.6
		c-1.5,0-2.8,0.5-3.9,1.6c-1.1,1.1-1.6,2.4-1.6,3.9v35.6c0,1.5,0.5,2.8,1.6,3.9c1.1,1.1,2.4,1.6,3.9,1.6c1.5,0,2.8-0.5,3.9-1.6
		C121.4,154.6,121.9,153.4,121.9,151.9 M89,151.9v-35.6c0-1.5-0.5-2.8-1.6-3.9c-1.1-1.1-2.4-1.6-3.9-1.6c-1.5,0-2.8,0.5-3.9,1.6
		c-1.1,1.1-1.6,2.4-1.6,3.9v35.6c0,1.5,0.5,2.8,1.6,3.9c1.1,1.1,2.4,1.6,3.9,1.6c1.5,0,2.8-0.5,3.9-1.6
		C88.5,154.6,89,153.4,89,151.9 M53.8,157.4c1.5-0.1,2.7-0.8,3.7-1.9c1-1.2,1.4-2.5,1.3-4l-2.7-35.6c-0.1-1.5-0.8-2.7-1.9-3.7
		c-1.2-1-2.5-1.4-4-1.3c-1.5,0.1-2.7,0.8-3.7,1.9c-1,1.2-1.4,2.5-1.3,4l2.7,35.6c0.1,1.4,0.7,2.6,1.8,3.6c1.1,1,2.3,1.5,3.7,1.5
		H53.8z M53,48l-8,35.3H33.7l8.7-37.8c1.1-5,3.6-9.1,7.6-12.3c4-3.2,8.6-4.8,13.7-4.8H78c0-1.5,0.5-2.8,1.6-3.9
		c1.1-1.1,2.4-1.6,3.9-1.6h32.9c1.5,0,2.8,0.5,3.9,1.6c1.1,1.1,1.6,2.4,1.6,3.9h14.3c5.1,0,9.7,1.6,13.7,4.8c4,3.2,6.5,7.3,7.6,12.3
		l8.7,37.8h-11.3l-8-35.3c-0.6-2.5-1.9-4.6-3.9-6.2c-2-1.6-4.2-2.4-6.8-2.4h-14.3c0,1.5-0.5,2.8-1.6,3.9c-1.1,1.1-2.4,1.6-3.9,1.6
		H83.5c-1.5,0-2.8-0.5-3.9-1.6c-1.1-1.1-1.6-2.4-1.6-3.9H63.7c-2.6,0-4.8,0.8-6.8,2.4C54.9,43.5,53.6,45.5,53,48 M176.7,88.8
		c3,0,5.6,1.1,7.8,3.2c2.1,2.1,3.2,4.7,3.2,7.8c0,3-1.1,5.6-3.2,7.8c-2.1,2.1-4.7,3.2-7.8,3.2h-1.3l-9.9,56.7
		c-0.5,2.6-1.7,4.8-3.8,6.5c-2.1,1.7-4.4,2.6-7,2.6H45.1c-2.6,0-5-0.9-7-2.6c-2.1-1.7-3.3-3.9-3.8-6.5l-9.9-56.7h-1.3
		c-3,0-5.6-1.1-7.8-3.2c-2.1-2.1-3.2-4.7-3.2-7.8c0-3,1.1-5.6,3.2-7.8c2.1-2.1,4.7-3.2,7.8-3.2H176.7z"/>
</g>
</svg>
