<?xml version="1.0" encoding="utf-8"?>
<!-- Generator: Adobe Illustrator 21.1.0, SVG Export Plug-In . SVG Version: 6.00 Build 0)  -->
<svg version="1.1" id="Layer_1" xmlns="http://www.w3.org/2000/svg" xmlns:xlink="http://www.w3.org/1999/xlink" x="0px" y="0px"
	 viewBox="0 0 400 183" style="enable-background:new 0 0 400 183;" xml:space="preserve">
<rect x="133" y="1.5" style="fill:#FFFFFF;" width="131.9" height="126.3"/>
<g>
	<defs>
		<rect id="SVGID_1_" x="1.4" y="1.5" width="396.6" height="177.5"/>
	</defs>
	<clipPath id="SVGID_2_">
		<use xlink:href="#SVGID_1_"  style="overflow:visible;"/>
	</clipPath>
	<path style="clip-path:url(#SVGID_2_);fill:#FFFFFF;" d="M1.9,178.2c-0.4-0.2-0.5-0.3-0.5-1.2c0-1.6,0.1-2.8,0.2-3.3
		c0-0.3,0.1-0.5,0.3-0.5c0.2,0,0.2,0.1,0.2,0.3c0,0.3,0,0.7,0.1,1.2c0.5,2.3,2.5,3.2,4.7,3.2c3,0,4.5-2.2,4.5-4.2
		c0-2.2-0.9-3.4-3.6-5.7l-1.4-1.2c-3.3-2.7-4.1-4.7-4.1-6.8c0-3.4,2.5-5.7,6.5-5.7c1.2,0,2.1,0.1,2.9,0.3c0.6,0.1,0.9,0.2,1.1,0.2
		c0.3,0,0.3,0.1,0.3,0.2s-0.1,1.2-0.1,3.3c0,0.5-0.1,0.7-0.2,0.7c-0.2,0-0.2-0.2-0.3-0.4c0-0.4-0.2-1.2-0.4-1.6
		c-0.2-0.3-1-1.7-3.9-1.7c-2.2,0-3.9,1.4-3.9,3.6c0,1.8,0.9,2.9,3.8,5.3l0.9,0.7c3.7,2.9,4.6,4.9,4.6,7.4c0,1.3-0.5,3.7-2.7,5.2
		c-1.4,0.9-3,1.3-4.7,1.3C4.6,179.1,3.2,178.9,1.9,178.2"/>
	<path style="clip-path:url(#SVGID_2_);fill:#FFFFFF;" d="M33.2,164c0-4.9,0.1-5.8,0-6.8c-0.1-1.1-0.3-1.6-1.3-1.8
		c-0.3-0.1-0.8-0.1-1.1-0.1c-0.1,0-0.2-0.1-0.2-0.2c0-0.2,0.2-0.3,0.5-0.3c1.4,0,3.3,0.1,3.6,0.1c0.3,0,2.2-0.1,3.1-0.1
		c0.3,0,0.5,0.1,0.5,0.3c0,0.1-0.1,0.2-0.3,0.2c-0.2,0-0.4,0-0.8,0.1c-0.8,0.1-1,0.7-1,1.8c-0.1,1,0.1,1.9,0.1,6.8v4.4
		c0,4.5,0.9,6.5,2.2,7.8c1.5,1.4,2.9,1.7,4.7,1.7c1.9,0,3.8-0.9,4.9-2.3c1.4-1.8,1.8-4.5,1.8-7.7V164c0-4.9,0-5.8-0.1-6.8
		c-0.1-1.1-0.3-1.6-1.4-1.8c-0.3-0.1-0.8-0.1-1.1-0.1c-0.1,0-0.3-0.1-0.3-0.2c0-0.2,0.2-0.3,0.5-0.3c1.4,0,3.1,0.1,3.3,0.1
		c0.2,0,1.7-0.1,2.6-0.1c0.3,0,0.5,0.1,0.5,0.3c0,0.1-0.1,0.2-0.3,0.2c-0.2,0-0.4,0-0.8,0.1c-0.9,0.2-1.1,0.7-1.2,1.8
		c-0.1,1-0.1,1.9-0.1,6.8v3.4c0,3.4-0.3,7.2-2.9,9.4c-2.3,2-4.6,2.3-6.5,2.3c-1.1,0-4.3-0.1-6.5-2.2c-1.5-1.5-2.8-3.7-2.8-8.3V164z"
		/>
	<path style="clip-path:url(#SVGID_2_);fill:#FFFFFF;" d="M74.2,164c0-4.9,0.1-5.8,0.1-6.8c-0.1-1.1-0.3-1.6-1.3-1.8
		c-0.3-0.1-0.8-0.1-1-0.1c-0.1,0-0.2-0.1-0.2-0.2c0-0.2,0.2-0.3,0.5-0.3c1.4,0,3.3,0.1,3.6,0.1c0.7,0,2.5-0.1,4-0.1
		c3.9,0,5.3,1.3,5.8,1.8c0.7,0.7,1.6,2.1,1.6,3.7c0,4.5-3.3,7.5-7.7,7.5c-0.2,0-0.5,0-0.7,0c-0.2,0-0.3-0.1-0.3-0.2
		c0-0.3,0.2-0.3,0.8-0.3c3.1,0,5.4-2.2,5.4-5.1c0-1-0.1-3.1-1.8-4.8c-1.7-1.7-3.6-1.6-4.3-1.6c-0.5,0-0.9,0.1-1.2,0.2
		c-0.2,0.1-0.1,0.3-0.1,0.6v12.9c0,3-0.1,5.5,0,6.8c0.1,0.9,0.2,1.6,1.2,1.7c0.4,0.1,1.1,0.1,1.4,0.1c0.2,0,0.2,0.1,0.2,0.2
		c0,0.2-0.2,0.3-0.5,0.3c-1.7,0-3.7-0.1-3.9-0.1c-0.1,0-2.1,0.1-3,0.1c-0.3,0-0.5-0.1-0.5-0.3c0-0.1,0.1-0.2,0.3-0.2
		c0.3,0,0.7-0.1,0.9-0.1c0.6-0.1,0.7-0.8,0.8-1.7c0.2-1.3,0-3.8,0-6.8V164z"/>
	<path style="clip-path:url(#SVGID_2_);fill:#FFFFFF;" d="M106.6,164c0-4.9,0-5.8-0.1-6.8c-0.1-1.1-0.3-1.6-1.4-1.8
		c-0.3-0.1-0.8-0.1-1.1-0.1c-0.1,0-0.3-0.1-0.3-0.2c0-0.2,0.2-0.3,0.5-0.3c1.4,0,3.4,0.1,3.6,0.1c0.2,0,6.5,0,7.2,0
		c0.6,0,1.1-0.1,1.4-0.2c0.2,0,0.3-0.2,0.4-0.2c0.1,0,0.1,0.1,0.1,0.3c0,0.2-0.2,0.6-0.3,1.5c0,0.3-0.1,1.7-0.2,2.1
		c0,0.2-0.1,0.3-0.2,0.3c-0.2,0-0.3-0.2-0.3-0.4c0-0.2,0-0.8-0.2-1.1c-0.2-0.5-0.5-0.9-2.2-1.1c-0.5-0.1-4-0.1-4.3-0.1
		c-0.1,0-0.2,0.1-0.2,0.3v8.7c0,0.2,0.1,0.3,0.2,0.3c0.4,0,4.3,0,5-0.1c0.8-0.1,1.2-0.1,1.5-0.4c0.2-0.3,0.3-0.4,0.5-0.4
		c0.1,0,0.2,0.1,0.2,0.3c0,0.2-0.2,0.7-0.3,1.8c-0.1,0.6-0.1,1.8-0.1,2c0,0.3,0,0.6-0.2,0.6c-0.2,0-0.2-0.1-0.2-0.3
		c0-0.3,0-0.6-0.1-1c-0.1-0.4-0.4-1-1.6-1.1c-0.8-0.1-4-0.2-4.5-0.2c-0.2,0-0.3,0.1-0.3,0.2v2.8c0,1.1,0,4.7,0,5.4
		c0.1,2.2,0.6,2.6,3.7,2.6c0.8,0,2.2,0,3-0.3c0.8-0.3,1.2-1,1.4-2.3c0.1-0.3,0.1-0.5,0.3-0.5c0.2,0,0.2,0.3,0.2,0.5
		c0,0.3-0.3,2.4-0.4,3c-0.2,0.8-0.5,0.8-1.7,0.8c-4.7,0-6.9-0.2-7.8-0.2c-0.1,0-0.6,0-1.3,0c-0.6,0-1.4,0.1-1.8,0.1
		c-0.3,0-0.5-0.1-0.5-0.3c0-0.1,0.1-0.2,0.3-0.2c0.3,0,0.7-0.1,0.9-0.1c0.6-0.1,0.8-0.8,1-1.7c0.2-1.3,0.2-3.8,0.2-6.8V164z"/>
	<path style="clip-path:url(#SVGID_2_);fill:#FFFFFF;" d="M140.8,166.7c0,0.2,0,0.3,0.1,0.4c0.5,0.3,1.9,0.5,3.2,0.5
		c0.8,0,1.6-0.1,2.3-0.6c1.1-0.8,1.9-2.5,1.9-4.8c0-3.9-2.1-6.3-5.4-6.3c-0.9,0-1.7,0.1-2,0.2c-0.2,0.1-0.1,0.2-0.1,0.4V166.7z
		 M138.3,164c0-4.9-0.1-5.8-0.2-6.8c-0.1-1.1-0.4-1.6-1.4-1.8c-0.3-0.1-0.8-0.1-1.1-0.1c-0.1,0-0.3-0.1-0.3-0.2
		c0-0.2,0.1-0.3,0.5-0.3c1.4,0,3.4,0.1,3.6,0.1c0.3,0,2.7-0.1,3.7-0.1c2,0,4.1,0.2,5.8,1.4c0.8,0.6,2.2,2.1,2.2,4.3
		c0,2.3-1,4.7-3.8,7.3c2.6,3.3,4.7,6.1,6.5,8.1c1.7,1.8,3.1,2.1,3.8,2.3c0.6,0.1,1,0.1,1.2,0.1c0.2,0,0.3,0,0.3,0.1
		c0,0.2-0.2,0.2-0.8,0.2h-2.2c-1.8,0-2.5-0.1-3.4-0.5c-1.4-0.7-2.5-2.2-4.2-4.6c-1.3-1.7-2.8-3.8-3.4-4.6c-0.1-0.1-0.2-0.2-0.4-0.2
		l-3.8-0.1c-0.2,0-0.1,0.1-0.1,0.3v0.8c0,3-0.1,5.5,0.1,6.8c0.1,0.9,0.2,1.6,1.2,1.7c0.4,0.1,1.1,0.1,1.4,0.1c0.2,0,0.2,0.1,0.2,0.2
		c0,0.2-0.2,0.3-0.5,0.3c-1.7,0-3.7-0.1-3.9-0.1c0,0-2,0.1-3,0.1c-0.3,0-0.5-0.1-0.5-0.3c0-0.1,0.1-0.2,0.3-0.2
		c0.3,0,0.7-0.1,0.9-0.1c0.6-0.1,0.9-0.8,1-1.7c0.2-1.3,0.3-3.8,0.3-6.8V164z"/>
	<path style="clip-path:url(#SVGID_2_);fill:#FFFFFF;" d="M199.2,175.7c-3.1-2.7-3.8-6.3-3.8-9.3c0-2.1,0.7-5.8,3.5-8.6
		c1.9-1.9,4.7-3.4,9.6-3.4c1.3,0,3,0.1,4.6,0.4c1.2,0.2,2.2,0.4,3.2,0.5c0.3,0,0.4,0.2,0.4,0.3c0,0.3-0.1,0.6-0.2,1.8
		c-0.1,1-0.1,2.8-0.1,3.2c0,0.5-0.1,0.7-0.3,0.7c-0.2,0-0.3-0.2-0.3-0.7c0-1.2-0.5-2.5-1.3-3.2c-1.1-0.9-3.5-1.8-6.3-1.8
		c-4.2,0-6.1,1.2-7.2,2.3c-2.3,2.2-2.8,5-2.8,8.2c0,6,4.6,11.5,11.3,11.5c2.4,0,4.2-0.3,5.5-1.6c0.7-0.7,1.1-2.1,1.2-2.6
		c0.1-0.3,0.1-0.5,0.3-0.5c0.2,0,0.2,0.2,0.2,0.5c0,0.2-0.4,3-0.7,4c-0.2,0.6-0.3,0.7-0.8,0.9c-1.3,0.5-3.7,0.7-5.7,0.7
		C204.9,179.1,201.7,177.9,199.2,175.7"/>
	<path style="clip-path:url(#SVGID_2_);fill:#FFFFFF;" d="M237.2,164c0-4.9,0-5.8,0-6.8c-0.1-1.1-0.3-1.6-1.3-1.8
		c-0.3-0.1-0.8-0.1-1.1-0.1c-0.1,0-0.3-0.1-0.3-0.2c0-0.2,0.2-0.3,0.5-0.3c1.4,0,3.4,0.1,3.6,0.1c0.2,0,6.5,0,7.2,0
		c0.6,0,1.1-0.1,1.4-0.2c0.2,0,0.3-0.2,0.4-0.2c0.1,0,0.1,0.1,0.1,0.3c0,0.2-0.2,0.6-0.3,1.5c0,0.3-0.1,1.7-0.2,2.1
		c0,0.2-0.1,0.3-0.2,0.3c-0.2,0-0.3-0.2-0.3-0.4c0-0.2,0-0.8-0.2-1.1c-0.2-0.5-0.5-0.9-2.2-1.1c-0.5-0.1-4.1-0.1-4.4-0.1
		c-0.1,0-0.3,0.1-0.3,0.3v8.7c0,0.2,0.2,0.3,0.3,0.3c0.4,0,4.3,0,5.1-0.1c0.8-0.1,1.2-0.1,1.5-0.4c0.2-0.3,0.4-0.4,0.5-0.4
		c0.1,0,0.2,0.1,0.2,0.3c0,0.2-0.2,0.7-0.2,1.8c-0.1,0.6-0.1,1.8-0.1,2c0,0.3,0,0.6-0.2,0.6c-0.2,0-0.2-0.1-0.2-0.3
		c0-0.3,0-0.6-0.1-1c-0.1-0.4-0.4-1-1.6-1.1c-0.9-0.1-4.1-0.2-4.6-0.2c-0.2,0-0.3,0.1-0.3,0.2v2.8c0,1.1,0.1,4.7,0.1,5.4
		c0.1,2.2,0.6,2.6,3.7,2.6c0.8,0,2.2,0,3.1-0.3c0.8-0.3,1.2-1,1.4-2.3c0.1-0.3,0.1-0.5,0.3-0.5c0.2,0,0.2,0.3,0.2,0.5
		c0,0.3-0.3,2.4-0.4,3c-0.2,0.8-0.5,0.8-1.7,0.8c-4.8,0-6.9-0.2-7.8-0.2c-0.1,0-0.6,0-1.3,0c-0.6,0-1.4,0.1-1.8,0.1
		c-0.3,0-0.5-0.1-0.5-0.3c0-0.1,0.1-0.2,0.3-0.2c0.3,0,0.7-0.1,0.9-0.1c0.6-0.1,0.7-0.8,0.9-1.7c0.2-1.3,0.1-3.8,0.1-6.8V164z"/>
	<path style="clip-path:url(#SVGID_2_);fill:#FFFFFF;" d="M270.3,174.4c0.1,2.6,0.4,3.4,1.2,3.7c0.6,0.2,1.3,0.2,1.6,0.2
		c0.2,0,0.3,0.1,0.3,0.2c0,0.2-0.2,0.3-0.6,0.3c-1.8,0-3-0.1-3.3-0.1c-0.3,0-1.6,0.1-3,0.1c-0.3,0-0.5,0-0.5-0.3
		c0-0.1,0.1-0.2,0.2-0.2c0.3,0,0.8,0,1.3-0.2c0.8-0.2,0.9-1.1,0.9-4l0-18c0-1.2,0.1-1.6,0.3-1.6c0.3,0,0.8,0.7,1.1,1
		c0.5,0.5,5.2,5.6,10,10.8c3.1,3.3,6.5,7.2,7.5,8.2l-0.3-16c0-2-0.3-2.7-1.2-3c-0.6-0.1-1.3-0.2-1.5-0.2c-0.2,0-0.3-0.1-0.3-0.2
		c0-0.2,0.3-0.2,0.6-0.2c1.4,0,2.9,0.1,3.3,0.1c0.3,0,1.4-0.1,2.7-0.1c0.3,0,0.6,0,0.6,0.2c0,0.1-0.1,0.2-0.3,0.2
		c-0.2,0-0.4,0-0.8,0.1c-1,0.2-1.2,0.9-1.2,2.8l-0.1,18.4c0,2.1-0.1,2.2-0.3,2.2c-0.3,0-0.6-0.3-2.3-2c-0.3-0.3-4.9-4.9-8.2-8.5
		c-3.6-3.9-7.2-7.9-8.2-9L270.3,174.4z"/>
	<path style="clip-path:url(#SVGID_2_);fill:#FFFFFF;" d="M319.3,169.5c0,3,0.1,5.5,0.2,6.8c0.1,0.9,0.3,1.6,1.3,1.7
		c0.4,0.1,1.1,0.1,1.4,0.1c0.2,0,0.3,0.1,0.3,0.2c0,0.2-0.2,0.3-0.5,0.3c-1.7,0-3.7-0.1-3.9-0.1c-0.2,0-2.1,0.1-3.1,0.1
		c-0.3,0-0.5-0.1-0.5-0.3c0-0.1,0.1-0.2,0.3-0.2c0.3,0,0.7-0.1,0.9-0.1c0.6-0.1,0.8-0.8,0.9-1.7c0.2-1.3,0.2-3.8,0.2-6.8v-13.3
		l-4.7,0.1c-2,0-2.7,0.3-3.2,1c-0.3,0.5-0.4,0.8-0.5,1c-0.1,0.3-0.2,0.3-0.3,0.3c-0.1,0-0.2-0.1-0.2-0.3c0-0.3,0.6-3,0.7-3.3
		c0.1-0.2,0.2-0.6,0.3-0.6c0.2,0,0.5,0.3,1.4,0.3c0.9,0.1,2.1,0.1,2.5,0.1h11.8c1,0,1.7,0,2.2-0.1c0.5-0.1,0.8-0.1,0.9-0.1
		c0.2,0,0.2,0.2,0.2,0.4c0,0.9-0.1,3.1-0.1,3.5c0,0.3-0.1,0.4-0.2,0.4c-0.2,0-0.2-0.1-0.3-0.5l0-0.3c-0.1-0.9-0.9-1.7-3.9-1.7
		l-4-0.1V169.5z"/>
	<path style="clip-path:url(#SVGID_2_);fill:#FFFFFF;" d="M350.4,166.7c0,0.2,0.1,0.3,0.2,0.4c0.5,0.3,1.9,0.5,3.3,0.5
		c0.8,0,1.6-0.1,2.4-0.6c1.1-0.8,1.9-2.5,1.9-4.8c0-3.9-2.1-6.3-5.4-6.3c-0.9,0-1.8,0.1-2.1,0.2c-0.2,0.1-0.3,0.2-0.3,0.4V166.7z
		 M347.9,164c0-4.9,0-5.8-0.1-6.8c-0.1-1.1-0.3-1.6-1.3-1.8c-0.3-0.1-0.8-0.1-1.1-0.1c-0.1,0-0.3-0.1-0.3-0.2c0-0.2,0.2-0.3,0.5-0.3
		c1.4,0,3.4,0.1,3.6,0.1c0.3,0,2.7-0.1,3.7-0.1c2,0,4.1,0.2,5.8,1.4c0.8,0.6,2.2,2.1,2.2,4.3c0,2.3-1,4.7-3.8,7.3
		c2.6,3.3,4.7,6.1,6.5,8.1c1.7,1.8,3.1,2.1,3.8,2.3c0.6,0.1,1,0.1,1.2,0.1c0.2,0,0.3,0,0.3,0.1c0,0.2-0.2,0.2-0.8,0.2H366
		c-1.8,0-2.6-0.1-3.4-0.5c-1.4-0.7-2.5-2.2-4.2-4.6c-1.3-1.7-2.8-3.8-3.4-4.6c-0.1-0.1-0.2-0.2-0.4-0.2l-3.9-0.1
		c-0.2,0-0.2,0.1-0.2,0.3v0.8c0,3,0,5.5,0.2,6.8c0.1,0.9,0.3,1.6,1.2,1.7c0.4,0.1,1.1,0.1,1.4,0.1c0.2,0,0.3,0.1,0.3,0.2
		c0,0.2-0.2,0.3-0.5,0.3c-1.7,0-3.7-0.1-3.9-0.1c0,0-2,0.1-3,0.1c-0.3,0-0.5-0.1-0.5-0.3c0-0.1,0.1-0.2,0.3-0.2
		c0.3,0,0.7-0.1,0.9-0.1c0.6-0.1,0.8-0.8,0.9-1.7c0.2-1.3,0.1-3.8,0.1-6.8V164z"/>
	<path style="clip-path:url(#SVGID_2_);fill:#FFFFFF;" d="M387.1,164c0-4.9-0.1-5.8-0.2-6.8c-0.1-1.1-0.4-1.6-1.4-1.8
		c-0.3-0.1-0.8-0.1-1.1-0.1c-0.1,0-0.3-0.1-0.3-0.2c0-0.2,0.1-0.3,0.5-0.3c1.4,0,3.4,0.1,3.5,0.1c0.2,0,6.5,0,7.2,0
		c0.6,0,1.1-0.1,1.4-0.2c0.2,0,0.3-0.2,0.4-0.2c0.1,0,0.1,0.1,0.1,0.3c0,0.2-0.2,0.6-0.3,1.5c0,0.3-0.1,1.7-0.2,2.1
		c0,0.2-0.1,0.3-0.2,0.3c-0.2,0-0.3-0.2-0.3-0.4c0-0.2,0-0.8-0.2-1.1c-0.2-0.5-0.5-0.9-2.2-1.1c-0.5-0.1-3.9-0.1-4.3-0.1
		c-0.1,0-0.1,0.1-0.1,0.3v8.7c0,0.2,0,0.3,0.1,0.3c0.4,0,4.3,0,5-0.1c0.8-0.1,1.2-0.1,1.5-0.4c0.2-0.3,0.3-0.4,0.5-0.4
		c0.1,0,0.2,0.1,0.2,0.3c0,0.2-0.2,0.7-0.3,1.8c-0.1,0.6-0.1,1.8-0.1,2c0,0.3,0,0.6-0.2,0.6c-0.2,0-0.2-0.1-0.2-0.3
		c0-0.3,0-0.6-0.1-1c-0.1-0.4-0.4-1-1.6-1.1c-0.8-0.1-3.9-0.2-4.5-0.2c-0.2,0-0.2,0.1-0.2,0.2v2.8c0,1.1-0.1,4.7,0,5.4
		c0.1,2.2,0.5,2.6,3.6,2.6c0.8,0,2.2,0,3-0.3c0.8-0.3,1.2-1,1.4-2.3c0.1-0.3,0.1-0.5,0.3-0.5c0.2,0,0.2,0.3,0.2,0.5
		c0,0.3-0.3,2.4-0.4,3c-0.2,0.8-0.5,0.8-1.7,0.8c-4.7,0-6.9-0.2-7.8-0.2c-0.1,0-0.6,0-1.3,0c-0.6,0-1.4,0.1-1.8,0.1
		c-0.3,0-0.5-0.1-0.5-0.3c0-0.1,0.1-0.2,0.3-0.2c0.3,0,0.7-0.1,0.9-0.1c0.6-0.1,0.9-0.8,1-1.7c0.2-1.3,0.3-3.8,0.3-6.8V164z"/>
	<path style="clip-path:url(#SVGID_2_);fill:#EF5C5E;" d="M157.3,63c0-16.1,11.8-38,39.8-38.4V1.5H133v61.6h24.4
		C157.4,63.1,157.3,63.1,157.3,63"/>
	<path style="clip-path:url(#SVGID_2_);fill:#EF5C5E;" d="M197.1,29.4c0,0-0.8,0-1.2,0c-13.1,0-24.7,8.3-24.7,31.4
		c0,0.8,0.1,1.8,0.1,2.4h25.7V29.4z"/>
	<path style="clip-path:url(#SVGID_2_);fill:#AE9E3B;" d="M200.2,29.7v33.4h24.5C224.1,42.6,212,31.7,200.2,29.7"/>
	<path style="clip-path:url(#SVGID_2_);fill:#AE9E3B;" d="M238.8,62.2c0,0.3-0.1,0.9-0.1,0.9h26.2V1.5h-64.7v23.1
		C223.2,25.3,238.8,39.5,238.8,62.2"/>
	<path style="clip-path:url(#SVGID_2_);fill:#0091B3;" d="M221.3,95.2c0,0,23.6,17.7,34.3,20.3c3.3,0.8,6.1,1.2,9.2,1.4V66.2h-26.4
		C237.1,81.2,227.2,91.4,221.3,95.2"/>
	<path style="clip-path:url(#SVGID_2_);fill:#0091B3;" d="M222.1,104.8l-8.3-4.7c-3.5,1.3-9.3,2.3-13.6,2.5v25.1h64.7v-9.3
		C253.7,118.6,239.1,115.7,222.1,104.8"/>
	<path style="clip-path:url(#SVGID_2_);fill:#0091B3;" d="M224.7,66.2h-24.5v31.5c0.6,0,1,0.1,1.6,0.1
		C209.7,97.8,224.4,94.2,224.7,66.2"/>
	<path style="clip-path:url(#SVGID_2_);fill:#F9AF5E;" d="M197.1,97.4V66.2h-25.5C173.3,84.3,184.6,95.4,197.1,97.4"/>
	<path style="clip-path:url(#SVGID_2_);fill:#F9AF5E;" d="M157.5,66.2H133v61.6h64.1v-25.1C170.3,102.4,158.7,83,157.5,66.2"/>
</g>
</svg>
